# xmcd
#
# Track frame offsets:
# 150
# 11723
# 25440
# 42045
# 69948
# 82469
# 124245
# 144430
# 154785
# 179020
# 180961
# 208983
#
# Disc length: 3086 seconds
#
#
# Revision: 0
# Processed by: cddbd v1.4PL0 Copyright (c) Steve Scherf et al.
# Submitted via: FreeRIP 2.11 
#
DISCID=aa0c0c0c
DTITLE=Those Delta Rhythm Kings - Every Night And Every Day
DYEAR=2001
DGENRE=Blues
TTITLE0=Strollin' With Bones
TTITLE1=Youy Upset Me Baby
TTITLE2=Mary Ann
TTITLE3=Lollipop Mama
TTITLE4=Black Diamond
TTITLE5=Every Night And Every Day 
TTITLE6=Three Hundred Pounds Of Joy
TTITLE7=Safronia B
TTITLE8=The Crunch
TTITLE9=Mickey Walks In (interlude)
TTITLE10=Let's Do It Like Monkeys
TTITLE11=You Don't Love Me
EXTD=
EXTT0=
EXTT1=
EXTT2=
EXTT3=
EXTT4=
EXTT5=
EXTT6=
EXTT7=
EXTT8=
EXTT9=
EXTT10=
EXTT11=
PLAYORDER=
